<?xml version="1.0" encoding="utf-8"?>
    <svg xmlns="http://www.w3.org/2000/svg"
         xmlns:xlink="http://www.w3.org/1999/xlink" width="1000" height="1414" >
    <defs>
    <style type="text/css"><![CDATA[
    line, path {
      stroke: black;
      stroke-width: 4;
      stroke-linecap: square;
    }
    path {
      fill: none;
    }

    text {
      font: bold 24px Verdana, Helvetica, Arial, sans-serif;
    }

    ]]>
    </style>
    </defs>
    
<text x="356.0" y="36.0" text-anchor="middle">Y</text>
<text x="388.0" y="36.0" text-anchor="middle">C</text>
<text x="420.0" y="36.0" text-anchor="middle">M</text>
<text x="452.0" y="36.0" text-anchor="middle">O</text>
<text x="484.0" y="36.0" text-anchor="middle">S</text>
<text x="516.0" y="36.0" text-anchor="middle">P</text>
<text x="548.0" y="36.0" text-anchor="middle">Q</text>
<text x="580.0" y="36.0" text-anchor="middle">P</text>
<text x="612.0" y="36.0" text-anchor="middle">T</text>
<text x="644.0" y="36.0" text-anchor="middle">N</text>
<text x="356.0" y="68.0" text-anchor="middle">J</text>
<text x="388.0" y="68.0" text-anchor="middle">H</text>
<text x="420.0" y="68.0" text-anchor="middle">E</text>
<text x="452.0" y="68.0" text-anchor="middle">Q</text>
<text x="484.0" y="68.0" text-anchor="middle">W</text>
<text x="516.0" y="68.0" text-anchor="middle">M</text>
<text x="548.0" y="68.0" text-anchor="middle">W</text>
<text x="580.0" y="68.0" text-anchor="middle">A</text>
<text x="612.0" y="68.0" text-anchor="middle">F</text>
<text x="644.0" y="68.0" text-anchor="middle">E</text>
<text x="356.0" y="100.0" text-anchor="middle">U</text>
<text x="388.0" y="100.0" text-anchor="middle">V</text>
<text x="420.0" y="100.0" text-anchor="middle">R</text>
<text x="452.0" y="100.0" text-anchor="middle">C</text>
<text x="484.0" y="100.0" text-anchor="middle">V</text>
<text x="516.0" y="100.0" text-anchor="middle">E</text>
<text x="548.0" y="100.0" text-anchor="middle">A</text>
<text x="580.0" y="100.0" text-anchor="middle">R</text>
<text x="612.0" y="100.0" text-anchor="middle">T</text>
<text x="644.0" y="100.0" text-anchor="middle">H</text>
<text x="356.0" y="132.0" text-anchor="middle">P</text>
<text x="388.0" y="132.0" text-anchor="middle">E</text>
<text x="420.0" y="132.0" text-anchor="middle">C</text>
<text x="452.0" y="132.0" text-anchor="middle">Q</text>
<text x="484.0" y="132.0" text-anchor="middle">Y</text>
<text x="516.0" y="132.0" text-anchor="middle">F</text>
<text x="548.0" y="132.0" text-anchor="middle">X</text>
<text x="580.0" y="132.0" text-anchor="middle">I</text>
<text x="612.0" y="132.0" text-anchor="middle">Y</text>
<text x="644.0" y="132.0" text-anchor="middle">N</text>
<text x="356.0" y="164.0" text-anchor="middle">I</text>
<text x="388.0" y="164.0" text-anchor="middle">N</text>
<text x="420.0" y="164.0" text-anchor="middle">U</text>
<text x="452.0" y="164.0" text-anchor="middle">R</text>
<text x="484.0" y="164.0" text-anchor="middle">A</text>
<text x="516.0" y="164.0" text-anchor="middle">N</text>
<text x="548.0" y="164.0" text-anchor="middle">U</text>
<text x="580.0" y="164.0" text-anchor="middle">S</text>
<text x="612.0" y="164.0" text-anchor="middle">N</text>
<text x="644.0" y="164.0" text-anchor="middle">E</text>
<text x="356.0" y="196.0" text-anchor="middle">T</text>
<text x="388.0" y="196.0" text-anchor="middle">U</text>
<text x="420.0" y="196.0" text-anchor="middle">R</text>
<text x="452.0" y="196.0" text-anchor="middle">E</text>
<text x="484.0" y="196.0" text-anchor="middle">L</text>
<text x="516.0" y="196.0" text-anchor="middle">D</text>
<text x="548.0" y="196.0" text-anchor="middle">C</text>
<text x="580.0" y="196.0" text-anchor="middle">R</text>
<text x="612.0" y="196.0" text-anchor="middle">B</text>
<text x="644.0" y="196.0" text-anchor="middle">P</text>
<text x="356.0" y="228.0" text-anchor="middle">E</text>
<text x="388.0" y="228.0" text-anchor="middle">S</text>
<text x="420.0" y="228.0" text-anchor="middle">Y</text>
<text x="452.0" y="228.0" text-anchor="middle">S</text>
<text x="484.0" y="228.0" text-anchor="middle">P</text>
<text x="516.0" y="228.0" text-anchor="middle">R</text>
<text x="548.0" y="228.0" text-anchor="middle">U</text>
<text x="580.0" y="228.0" text-anchor="middle">C</text>
<text x="612.0" y="228.0" text-anchor="middle">O</text>
<text x="644.0" y="228.0" text-anchor="middle">T</text>
<text x="356.0" y="260.0" text-anchor="middle">R</text>
<text x="388.0" y="260.0" text-anchor="middle">J</text>
<text x="420.0" y="260.0" text-anchor="middle">R</text>
<text x="452.0" y="260.0" text-anchor="middle">A</text>
<text x="484.0" y="260.0" text-anchor="middle">O</text>
<text x="516.0" y="260.0" text-anchor="middle">T</text>
<text x="548.0" y="260.0" text-anchor="middle">Q</text>
<text x="580.0" y="260.0" text-anchor="middle">V</text>
<text x="612.0" y="260.0" text-anchor="middle">N</text>
<text x="644.0" y="260.0" text-anchor="middle">U</text>
<text x="356.0" y="292.0" text-anchor="middle">T</text>
<text x="388.0" y="292.0" text-anchor="middle">A</text>
<text x="420.0" y="292.0" text-anchor="middle">M</text>
<text x="452.0" y="292.0" text-anchor="middle">Q</text>
<text x="484.0" y="292.0" text-anchor="middle">A</text>
<text x="516.0" y="292.0" text-anchor="middle">E</text>
<text x="548.0" y="292.0" text-anchor="middle">J</text>
<text x="580.0" y="292.0" text-anchor="middle">N</text>
<text x="612.0" y="292.0" text-anchor="middle">H</text>
<text x="644.0" y="292.0" text-anchor="middle">N</text>
<text x="356.0" y="324.0" text-anchor="middle">M</text>
<text x="388.0" y="324.0" text-anchor="middle">D</text>
<text x="420.0" y="324.0" text-anchor="middle">I</text>
<text x="452.0" y="324.0" text-anchor="middle">S</text>
<text x="484.0" y="324.0" text-anchor="middle">D</text>
<text x="516.0" y="324.0" text-anchor="middle">L</text>
<text x="548.0" y="324.0" text-anchor="middle">A</text>
<text x="580.0" y="324.0" text-anchor="middle">H</text>
<text x="612.0" y="324.0" text-anchor="middle">K</text>
<text x="644.0" y="324.0" text-anchor="middle">E</text>
<text x="250.0" y="381.0" text-anchor="middle" class="wordlist">MERCURY</text>
<text x="250.0" y="406.0" text-anchor="middle" class="wordlist">JUPITER</text>
<text x="250.0" y="431.0" text-anchor="middle" class="wordlist">NEPTUNE</text>
<text x="250.0" y="456.0" text-anchor="middle" class="wordlist">SATURN</text>
<text x="750.0" y="381.0" text-anchor="middle" class="wordlist">URANUS</text>
<text x="750.0" y="406.0" text-anchor="middle" class="wordlist">VENUS</text>
<text x="750.0" y="431.0" text-anchor="middle" class="wordlist">EARTH</text>
<text x="750.0" y="456.0" text-anchor="middle" class="wordlist">MARS</text>
</svg>
