<?xml version="1.0" encoding="utf-8" standalone="no"?>
<!DOCTYPE svg PUBLIC "-//W3C//DTD SVG 1.1//EN"
  "http://www.w3.org/Graphics/SVG/1.1/DTD/svg11.dtd">
<svg xmlns:xlink="http://www.w3.org/1999/xlink" width="432pt" height="288pt" viewBox="0 0 432 288" xmlns="http://www.w3.org/2000/svg" version="1.1">
 <metadata>
  <rdf:RDF xmlns:dc="http://purl.org/dc/elements/1.1/" xmlns:cc="http://creativecommons.org/ns#" xmlns:rdf="http://www.w3.org/1999/02/22-rdf-syntax-ns#">
   <cc:Work>
    <dc:type rdf:resource="http://purl.org/dc/dcmitype/StillImage"/>
    <dc:date>2023-10-10T13:31:50.025863</dc:date>
    <dc:format>image/svg+xml</dc:format>
    <dc:creator>
     <cc:Agent>
      <dc:title>Matplotlib v3.6.0, https://matplotlib.org/</dc:title>
     </cc:Agent>
    </dc:creator>
   </cc:Work>
  </rdf:RDF>
 </metadata>
 <defs>
  <style type="text/css">*{stroke-linejoin: round; stroke-linecap: butt}</style>
 </defs>
 <g id="figure_1">
  <g id="patch_1">
   <path d="M 0 288 
L 432 288 
L 432 0 
L 0 0 
z
" style="fill: #ffffff; stroke: #ffffff; stroke-linejoin: miter"/>
  </g>
  <g id="axes_1">
   <g id="patch_2">
    <path d="M 35.233937 251.127313 
L 427.68 251.127313 
L 427.68 12.96 
L 35.233937 12.96 
z
" style="fill: #ebebeb"/>
   </g>
   <g id="matplotlib.axis_1">
    <g id="xtick_1">
     <g id="line2d_1">
      <path d="M 53.072395 251.127313 
L 53.072395 12.96 
" clip-path="url(#p4f203211f1)" style="fill: none; stroke: #ffffff"/>
     </g>
     <g id="line2d_2">
      <path d="M 53.072395 251.127313 
" style="fill: none; stroke: #000000; stroke-width: 1.5"/>
      <defs>
       <path id="m24bd2aba97" d="M 0 0 
L 0 2.75 
" style="stroke: #333333"/>
      </defs>
      <g>
       <use xlink:href="#m24bd2aba97" x="53.072395" y="251.127313" style="stroke: #333333"/>
      </g>
     </g>
     <g id="text_1">
      <!-- 1 -->
      <g style="fill: #4d4d4d" transform="translate(50.272895 262.563938) scale(0.088 -0.088)">
       <defs>
        <path id="DejaVuSans-31" d="M 794 531 
L 1825 531 
L 1825 4091 
L 703 3866 
L 703 4441 
L 1819 4666 
L 2450 4666 
L 2450 531 
L 3481 531 
L 3481 0 
L 794 0 
L 794 531 
z
" transform="scale(0.015625)"/>
       </defs>
       <use xlink:href="#DejaVuSans-31"/>
      </g>
     </g>
    </g>
    <g id="xtick_2">
     <g id="line2d_3">
      <path d="M 142.264682 251.127313 
L 142.264682 12.96 
" clip-path="url(#p4f203211f1)" style="fill: none; stroke: #ffffff"/>
     </g>
     <g id="line2d_4">
      <path d="M 142.264682 251.127313 
" style="fill: none; stroke: #000000; stroke-width: 1.5"/>
      <g>
       <use xlink:href="#m24bd2aba97" x="142.264682" y="251.127313" style="stroke: #333333"/>
      </g>
     </g>
     <g id="text_2">
      <!-- 2 -->
      <g style="fill: #4d4d4d" transform="translate(139.465182 262.563938) scale(0.088 -0.088)">
       <defs>
        <path id="DejaVuSans-32" d="M 1228 531 
L 3431 531 
L 3431 0 
L 469 0 
L 469 531 
Q 828 903 1448 1529 
Q 2069 2156 2228 2338 
Q 2531 2678 2651 2914 
Q 2772 3150 2772 3378 
Q 2772 3750 2511 3984 
Q 2250 4219 1831 4219 
Q 1534 4219 1204 4116 
Q 875 4013 500 3803 
L 500 4441 
Q 881 4594 1212 4672 
Q 1544 4750 1819 4750 
Q 2544 4750 2975 4387 
Q 3406 4025 3406 3419 
Q 3406 3131 3298 2873 
Q 3191 2616 2906 2266 
Q 2828 2175 2409 1742 
Q 1991 1309 1228 531 
z
" transform="scale(0.015625)"/>
       </defs>
       <use xlink:href="#DejaVuSans-32"/>
      </g>
     </g>
    </g>
    <g id="xtick_3">
     <g id="line2d_5">
      <path d="M 231.456969 251.127313 
L 231.456969 12.96 
" clip-path="url(#p4f203211f1)" style="fill: none; stroke: #ffffff"/>
     </g>
     <g id="line2d_6">
      <path d="M 231.456969 251.127313 
" style="fill: none; stroke: #000000; stroke-width: 1.5"/>
      <g>
       <use xlink:href="#m24bd2aba97" x="231.456969" y="251.127313" style="stroke: #333333"/>
      </g>
     </g>
     <g id="text_3">
      <!-- 3 -->
      <g style="fill: #4d4d4d" transform="translate(228.657469 262.563938) scale(0.088 -0.088)">
       <defs>
        <path id="DejaVuSans-33" d="M 2597 2516 
Q 3050 2419 3304 2112 
Q 3559 1806 3559 1356 
Q 3559 666 3084 287 
Q 2609 -91 1734 -91 
Q 1441 -91 1130 -33 
Q 819 25 488 141 
L 488 750 
Q 750 597 1062 519 
Q 1375 441 1716 441 
Q 2309 441 2620 675 
Q 2931 909 2931 1356 
Q 2931 1769 2642 2001 
Q 2353 2234 1838 2234 
L 1294 2234 
L 1294 2753 
L 1863 2753 
Q 2328 2753 2575 2939 
Q 2822 3125 2822 3475 
Q 2822 3834 2567 4026 
Q 2313 4219 1838 4219 
Q 1578 4219 1281 4162 
Q 984 4106 628 3988 
L 628 4550 
Q 988 4650 1302 4700 
Q 1616 4750 1894 4750 
Q 2613 4750 3031 4423 
Q 3450 4097 3450 3541 
Q 3450 3153 3228 2886 
Q 3006 2619 2597 2516 
z
" transform="scale(0.015625)"/>
       </defs>
       <use xlink:href="#DejaVuSans-33"/>
      </g>
     </g>
    </g>
    <g id="xtick_4">
     <g id="line2d_7">
      <path d="M 320.649256 251.127313 
L 320.649256 12.96 
" clip-path="url(#p4f203211f1)" style="fill: none; stroke: #ffffff"/>
     </g>
     <g id="line2d_8">
      <path d="M 320.649256 251.127313 
" style="fill: none; stroke: #000000; stroke-width: 1.5"/>
      <g>
       <use xlink:href="#m24bd2aba97" x="320.649256" y="251.127313" style="stroke: #333333"/>
      </g>
     </g>
     <g id="text_4">
      <!-- 4 -->
      <g style="fill: #4d4d4d" transform="translate(317.849756 262.563938) scale(0.088 -0.088)">
       <defs>
        <path id="DejaVuSans-34" d="M 2419 4116 
L 825 1625 
L 2419 1625 
L 2419 4116 
z
M 2253 4666 
L 3047 4666 
L 3047 1625 
L 3713 1625 
L 3713 1100 
L 3047 1100 
L 3047 0 
L 2419 0 
L 2419 1100 
L 313 1100 
L 313 1709 
L 2253 4666 
z
" transform="scale(0.015625)"/>
       </defs>
       <use xlink:href="#DejaVuSans-34"/>
      </g>
     </g>
    </g>
    <g id="xtick_5">
     <g id="line2d_9">
      <path d="M 409.841543 251.127313 
L 409.841543 12.96 
" clip-path="url(#p4f203211f1)" style="fill: none; stroke: #ffffff"/>
     </g>
     <g id="line2d_10">
      <path d="M 409.841543 251.127313 
" style="fill: none; stroke: #000000; stroke-width: 1.5"/>
      <g>
       <use xlink:href="#m24bd2aba97" x="409.841543" y="251.127313" style="stroke: #333333"/>
      </g>
     </g>
     <g id="text_5">
      <!-- 5 -->
      <g style="fill: #4d4d4d" transform="translate(407.042043 262.563938) scale(0.088 -0.088)">
       <defs>
        <path id="DejaVuSans-35" d="M 691 4666 
L 3169 4666 
L 3169 4134 
L 1269 4134 
L 1269 2991 
Q 1406 3038 1543 3061 
Q 1681 3084 1819 3084 
Q 2600 3084 3056 2656 
Q 3513 2228 3513 1497 
Q 3513 744 3044 326 
Q 2575 -91 1722 -91 
Q 1428 -91 1123 -41 
Q 819 9 494 109 
L 494 744 
Q 775 591 1075 516 
Q 1375 441 1709 441 
Q 2250 441 2565 725 
Q 2881 1009 2881 1497 
Q 2881 1984 2565 2268 
Q 2250 2553 1709 2553 
Q 1456 2553 1204 2497 
Q 953 2441 691 2322 
L 691 4666 
z
" transform="scale(0.015625)"/>
       </defs>
       <use xlink:href="#DejaVuSans-35"/>
      </g>
     </g>
    </g>
    <g id="xtick_6">
     <g id="line2d_11">
      <path d="M 97.668538 251.127313 
L 97.668538 12.96 
" clip-path="url(#p4f203211f1)" style="fill: none; stroke: #ffffff; stroke-width: 0.5"/>
     </g>
    </g>
    <g id="xtick_7">
     <g id="line2d_12">
      <path d="M 186.860825 251.127313 
L 186.860825 12.96 
" clip-path="url(#p4f203211f1)" style="fill: none; stroke: #ffffff; stroke-width: 0.5"/>
     </g>
    </g>
    <g id="xtick_8">
     <g id="line2d_13">
      <path d="M 276.053112 251.127313 
L 276.053112 12.96 
" clip-path="url(#p4f203211f1)" style="fill: none; stroke: #ffffff; stroke-width: 0.5"/>
     </g>
    </g>
    <g id="xtick_9">
     <g id="line2d_14">
      <path d="M 365.245399 251.127313 
L 365.245399 12.96 
" clip-path="url(#p4f203211f1)" style="fill: none; stroke: #ffffff; stroke-width: 0.5"/>
     </g>
    </g>
   </g>
   <g id="matplotlib.axis_2">
    <g id="ytick_1">
     <g id="line2d_15">
      <path d="M 35.233937 240.301526 
L 427.68 240.301526 
" clip-path="url(#p4f203211f1)" style="fill: none; stroke: #ffffff"/>
     </g>
     <g id="line2d_16">
      <path d="M 35.233937 240.301526 
" style="fill: none; stroke: #000000; stroke-width: 1.5"/>
      <defs>
       <path id="meeb5419d87" d="M 0 0 
L -2.75 0 
" style="stroke: #333333"/>
      </defs>
      <g>
       <use xlink:href="#meeb5419d87" x="35.233937" y="240.301526" style="stroke: #333333"/>
      </g>
     </g>
     <g id="text_6">
      <!-- 2 -->
      <g style="fill: #4d4d4d" transform="translate(24.884937 242.729776) scale(0.088 -0.088)">
       <use xlink:href="#DejaVuSans-32"/>
      </g>
     </g>
    </g>
    <g id="ytick_2">
     <g id="line2d_17">
      <path d="M 35.233937 186.172591 
L 427.68 186.172591 
" clip-path="url(#p4f203211f1)" style="fill: none; stroke: #ffffff"/>
     </g>
     <g id="line2d_18">
      <path d="M 35.233937 186.172591 
" style="fill: none; stroke: #000000; stroke-width: 1.5"/>
      <g>
       <use xlink:href="#meeb5419d87" x="35.233937" y="186.172591" style="stroke: #333333"/>
      </g>
     </g>
     <g id="text_7">
      <!-- 4 -->
      <g style="fill: #4d4d4d" transform="translate(24.884937 188.600841) scale(0.088 -0.088)">
       <use xlink:href="#DejaVuSans-34"/>
      </g>
     </g>
    </g>
    <g id="ytick_3">
     <g id="line2d_19">
      <path d="M 35.233937 132.043656 
L 427.68 132.043656 
" clip-path="url(#p4f203211f1)" style="fill: none; stroke: #ffffff"/>
     </g>
     <g id="line2d_20">
      <path d="M 35.233937 132.043656 
" style="fill: none; stroke: #000000; stroke-width: 1.5"/>
      <g>
       <use xlink:href="#meeb5419d87" x="35.233937" y="132.043656" style="stroke: #333333"/>
      </g>
     </g>
     <g id="text_8">
      <!-- 6 -->
      <g style="fill: #4d4d4d" transform="translate(24.884937 134.471906) scale(0.088 -0.088)">
       <defs>
        <path id="DejaVuSans-36" d="M 2113 2584 
Q 1688 2584 1439 2293 
Q 1191 2003 1191 1497 
Q 1191 994 1439 701 
Q 1688 409 2113 409 
Q 2538 409 2786 701 
Q 3034 994 3034 1497 
Q 3034 2003 2786 2293 
Q 2538 2584 2113 2584 
z
M 3366 4563 
L 3366 3988 
Q 3128 4100 2886 4159 
Q 2644 4219 2406 4219 
Q 1781 4219 1451 3797 
Q 1122 3375 1075 2522 
Q 1259 2794 1537 2939 
Q 1816 3084 2150 3084 
Q 2853 3084 3261 2657 
Q 3669 2231 3669 1497 
Q 3669 778 3244 343 
Q 2819 -91 2113 -91 
Q 1303 -91 875 529 
Q 447 1150 447 2328 
Q 447 3434 972 4092 
Q 1497 4750 2381 4750 
Q 2619 4750 2861 4703 
Q 3103 4656 3366 4563 
z
" transform="scale(0.015625)"/>
       </defs>
       <use xlink:href="#DejaVuSans-36"/>
      </g>
     </g>
    </g>
    <g id="ytick_4">
     <g id="line2d_21">
      <path d="M 35.233937 77.914722 
L 427.68 77.914722 
" clip-path="url(#p4f203211f1)" style="fill: none; stroke: #ffffff"/>
     </g>
     <g id="line2d_22">
      <path d="M 35.233937 77.914722 
" style="fill: none; stroke: #000000; stroke-width: 1.5"/>
      <g>
       <use xlink:href="#meeb5419d87" x="35.233937" y="77.914722" style="stroke: #333333"/>
      </g>
     </g>
     <g id="text_9">
      <!-- 8 -->
      <g style="fill: #4d4d4d" transform="translate(24.884937 80.342972) scale(0.088 -0.088)">
       <defs>
        <path id="DejaVuSans-38" d="M 2034 2216 
Q 1584 2216 1326 1975 
Q 1069 1734 1069 1313 
Q 1069 891 1326 650 
Q 1584 409 2034 409 
Q 2484 409 2743 651 
Q 3003 894 3003 1313 
Q 3003 1734 2745 1975 
Q 2488 2216 2034 2216 
z
M 1403 2484 
Q 997 2584 770 2862 
Q 544 3141 544 3541 
Q 544 4100 942 4425 
Q 1341 4750 2034 4750 
Q 2731 4750 3128 4425 
Q 3525 4100 3525 3541 
Q 3525 3141 3298 2862 
Q 3072 2584 2669 2484 
Q 3125 2378 3379 2068 
Q 3634 1759 3634 1313 
Q 3634 634 3220 271 
Q 2806 -91 2034 -91 
Q 1263 -91 848 271 
Q 434 634 434 1313 
Q 434 1759 690 2068 
Q 947 2378 1403 2484 
z
M 1172 3481 
Q 1172 3119 1398 2916 
Q 1625 2713 2034 2713 
Q 2441 2713 2670 2916 
Q 2900 3119 2900 3481 
Q 2900 3844 2670 4047 
Q 2441 4250 2034 4250 
Q 1625 4250 1398 4047 
Q 1172 3844 1172 3481 
z
" transform="scale(0.015625)"/>
       </defs>
       <use xlink:href="#DejaVuSans-38"/>
      </g>
     </g>
    </g>
    <g id="ytick_5">
     <g id="line2d_23">
      <path d="M 35.233937 23.785787 
L 427.68 23.785787 
" clip-path="url(#p4f203211f1)" style="fill: none; stroke: #ffffff"/>
     </g>
     <g id="line2d_24">
      <path d="M 35.233937 23.785787 
" style="fill: none; stroke: #000000; stroke-width: 1.5"/>
      <g>
       <use xlink:href="#meeb5419d87" x="35.233937" y="23.785787" style="stroke: #333333"/>
      </g>
     </g>
     <g id="text_10">
      <!-- 10 -->
      <g style="fill: #4d4d4d" transform="translate(19.285937 26.214037) scale(0.088 -0.088)">
       <defs>
        <path id="DejaVuSans-30" d="M 2034 4250 
Q 1547 4250 1301 3770 
Q 1056 3291 1056 2328 
Q 1056 1369 1301 889 
Q 1547 409 2034 409 
Q 2525 409 2770 889 
Q 3016 1369 3016 2328 
Q 3016 3291 2770 3770 
Q 2525 4250 2034 4250 
z
M 2034 4750 
Q 2819 4750 3233 4129 
Q 3647 3509 3647 2328 
Q 3647 1150 3233 529 
Q 2819 -91 2034 -91 
Q 1250 -91 836 529 
Q 422 1150 422 2328 
Q 422 3509 836 4129 
Q 1250 4750 2034 4750 
z
" transform="scale(0.015625)"/>
       </defs>
       <use xlink:href="#DejaVuSans-31"/>
       <use xlink:href="#DejaVuSans-30" x="63.623047"/>
      </g>
     </g>
    </g>
    <g id="ytick_6">
     <g id="line2d_25">
      <path d="M 35.233937 213.237058 
L 427.68 213.237058 
" clip-path="url(#p4f203211f1)" style="fill: none; stroke: #ffffff; stroke-width: 0.5"/>
     </g>
    </g>
    <g id="ytick_7">
     <g id="line2d_26">
      <path d="M 35.233937 159.108124 
L 427.68 159.108124 
" clip-path="url(#p4f203211f1)" style="fill: none; stroke: #ffffff; stroke-width: 0.5"/>
     </g>
    </g>
    <g id="ytick_8">
     <g id="line2d_27">
      <path d="M 35.233937 104.979189 
L 427.68 104.979189 
" clip-path="url(#p4f203211f1)" style="fill: none; stroke: #ffffff; stroke-width: 0.5"/>
     </g>
    </g>
    <g id="ytick_9">
     <g id="line2d_28">
      <path d="M 35.233937 50.850254 
L 427.68 50.850254 
" clip-path="url(#p4f203211f1)" style="fill: none; stroke: #ffffff; stroke-width: 0.5"/>
     </g>
    </g>
   </g>
   <g id="PathCollection_1">
    <path d="M 53.072395 25.558241 
C 53.542455 25.558241 53.993326 25.371484 54.325709 25.039101 
C 54.658092 24.706718 54.844849 24.255847 54.844849 23.785787 
C 54.844849 23.315727 54.658092 22.864856 54.325709 22.532473 
C 53.993326 22.20009 53.542455 22.013333 53.072395 22.013333 
C 52.602335 22.013333 52.151464 22.20009 51.819081 22.532473 
C 51.486698 22.864856 51.299941 23.315727 51.299941 23.785787 
C 51.299941 24.255847 51.486698 24.706718 51.819081 25.039101 
C 52.151464 25.371484 52.602335 25.558241 53.072395 25.558241 
z
" clip-path="url(#p4f203211f1)" style="stroke: #000000; stroke-width: 0.886227"/>
    <path d="M 142.264682 79.687175 
C 142.734742 79.687175 143.185613 79.500419 143.517996 79.168036 
C 143.850379 78.835653 144.037136 78.384782 144.037136 77.914722 
C 144.037136 77.444661 143.850379 76.99379 143.517996 76.661407 
C 143.185613 76.329025 142.734742 76.142268 142.264682 76.142268 
C 141.794622 76.142268 141.34375 76.329025 141.011368 76.661407 
C 140.678985 76.99379 140.492228 77.444661 140.492228 77.914722 
C 140.492228 78.384782 140.678985 78.835653 141.011368 79.168036 
C 141.34375 79.500419 141.794622 79.687175 142.264682 79.687175 
z
" clip-path="url(#p4f203211f1)" style="stroke: #000000; stroke-width: 0.886227"/>
    <path d="M 231.456969 133.81611 
C 231.927029 133.81611 232.3779 133.629353 232.710283 133.29697 
C 233.042666 132.964588 233.229423 132.513717 233.229423 132.043656 
C 233.229423 131.573596 233.042666 131.122725 232.710283 130.790342 
C 232.3779 130.457959 231.927029 130.271202 231.456969 130.271202 
C 230.986908 130.271202 230.536037 130.457959 230.203655 130.790342 
C 229.871272 131.122725 229.684515 131.573596 229.684515 132.043656 
C 229.684515 132.513717 229.871272 132.964588 230.203655 133.29697 
C 230.536037 133.629353 230.986908 133.81611 231.456969 133.81611 
z
" clip-path="url(#p4f203211f1)" style="stroke: #000000; stroke-width: 0.886227"/>
    <path d="M 320.649256 187.945045 
C 321.119316 187.945045 321.570187 187.758288 321.90257 187.425905 
C 322.234953 187.093522 322.42171 186.642651 322.42171 186.172591 
C 322.42171 185.702531 322.234953 185.25166 321.90257 184.919277 
C 321.570187 184.586894 321.119316 184.400137 320.649256 184.400137 
C 320.179195 184.400137 319.728324 184.586894 319.395942 184.919277 
C 319.063559 185.25166 318.876802 185.702531 318.876802 186.172591 
C 318.876802 186.642651 319.063559 187.093522 319.395942 187.425905 
C 319.728324 187.758288 320.179195 187.945045 320.649256 187.945045 
z
" clip-path="url(#p4f203211f1)" style="stroke: #000000; stroke-width: 0.886227"/>
    <path d="M 409.841543 242.073979 
C 410.311603 242.073979 410.762474 241.887222 411.094857 241.55484 
C 411.42724 241.222457 411.613996 240.771586 411.613996 240.301526 
C 411.613996 239.831465 411.42724 239.380594 411.094857 239.048211 
C 410.762474 238.715829 410.311603 238.529072 409.841543 238.529072 
C 409.371482 238.529072 408.920611 238.715829 408.588228 239.048211 
C 408.255846 239.380594 408.069089 239.831465 408.069089 240.301526 
C 408.069089 240.771586 408.255846 241.222457 408.588228 241.55484 
C 408.920611 241.887222 409.371482 242.073979 409.841543 242.073979 
z
" clip-path="url(#p4f203211f1)" style="stroke: #000000; stroke-width: 0.886227"/>
   </g>
  </g>
  <g id="text_11">
   <!-- X -->
   <g transform="translate(227.689469 277.072344) scale(0.11 -0.11)">
    <defs>
     <path id="DejaVuSans-58" d="M 403 4666 
L 1081 4666 
L 2241 2931 
L 3406 4666 
L 4084 4666 
L 2584 2425 
L 4184 0 
L 3506 0 
L 2194 1984 
L 872 0 
L 191 0 
L 1856 2491 
L 403 4666 
z
" transform="scale(0.015625)"/>
    </defs>
    <use xlink:href="#DejaVuSans-58"/>
   </g>
  </g>
  <g id="text_12">
   <!-- Y -->
   <g transform="translate(12.678281 135.402953) rotate(-90) scale(0.11 -0.11)">
    <defs>
     <path id="DejaVuSans-59" d="M -13 4666 
L 666 4666 
L 1959 2747 
L 3244 4666 
L 3922 4666 
L 2272 2222 
L 2272 0 
L 1638 0 
L 1638 2222 
L -13 4666 
z
" transform="scale(0.015625)"/>
    </defs>
    <use xlink:href="#DejaVuSans-59"/>
   </g>
  </g>
 </g>
 <defs>
  <clipPath id="p4f203211f1">
   <rect x="35.233937" y="12.96" width="392.446063" height="238.167312"/>
  </clipPath>
 </defs>
</svg>
